<?xml version="1.0" encoding="UTF-8"?>
<svg version="1.1" xmlns="http://www.w3.org/2000/svg" width="512" height="512">
<path d="M0 0 C1.45108658 0.00273422 1.45108658 0.00273422 2.93148804 0.00552368 C17.26440977 0.05095174 31.21023917 0.55983928 45.3125 3.3125 C46.65803955 3.55395752 46.65803955 3.55395752 48.03076172 3.80029297 C107.84088904 14.62287989 165.35495829 48.68064457 202.3125 97.3125 C202.72918945 97.85277832 203.14587891 98.39305664 203.57519531 98.94970703 C211.2584873 108.9447116 218.00092968 119.40459036 224.3125 130.3125 C224.70679199 130.98974121 225.10108398 131.66698242 225.50732422 132.36474609 C238.68961173 155.2833756 247.29510918 180.85822563 252.625 206.6875 C252.77243652 207.39817627 252.91987305 208.10885254 253.07177734 208.84106445 C256.05713787 224.48358366 256.6873098 240.11919606 256.625 256 C256.62226578 257.45108658 256.62226578 257.45108658 256.61947632 258.93148804 C256.57404826 273.26440977 256.06516072 287.21023917 253.3125 301.3125 C253.15152832 302.20952637 252.99055664 303.10655273 252.82470703 304.03076172 C242.00212011 363.84088904 207.94435543 421.35495829 159.3125 458.3125 C158.77222168 458.72918945 158.23194336 459.14587891 157.67529297 459.57519531 C147.6802884 467.2584873 137.22040964 474.00092968 126.3125 480.3125 C125.63525879 480.70679199 124.95801758 481.10108398 124.26025391 481.50732422 C101.3416244 494.68961173 75.76677437 503.29510918 49.9375 508.625 C49.22682373 508.77243652 48.51614746 508.91987305 47.78393555 509.07177734 C32.14141634 512.05713787 16.50580394 512.6873098 0.625 512.625 C-0.34239105 512.62317719 -1.3097821 512.62135437 -2.30648804 512.61947632 C-16.63940977 512.57404826 -30.58523917 512.06516072 -44.6875 509.3125 C-45.58452637 509.15152832 -46.48155273 508.99055664 -47.40576172 508.82470703 C-107.21588904 498.00212011 -164.72995829 463.94435543 -201.6875 415.3125 C-202.10418945 414.77222168 -202.52087891 414.23194336 -202.95019531 413.67529297 C-210.6334873 403.6802884 -217.37592968 393.22040964 -223.6875 382.3125 C-224.08179199 381.63525879 -224.47608398 380.95801758 -224.88232422 380.26025391 C-238.06461173 357.3416244 -246.67010918 331.76677437 -252 305.9375 C-252.14743652 305.22682373 -252.29487305 304.51614746 -252.44677734 303.78393555 C-255.43213787 288.14141634 -256.0623098 272.50580394 -256 256.625 C-255.99817719 255.65760895 -255.99635437 254.6902179 -255.99447632 253.69351196 C-255.94904826 239.36059023 -255.44016072 225.41476083 -252.6875 211.3125 C-252.44604248 209.96696045 -252.44604248 209.96696045 -252.19970703 208.59423828 C-241.37712011 148.78411096 -207.31935543 91.27004171 -158.6875 54.3125 C-158.14722168 53.89581055 -157.60694336 53.47912109 -157.05029297 53.04980469 C-147.0552884 45.3665127 -136.59540964 38.62407032 -125.6875 32.3125 C-125.01025879 31.91820801 -124.33301758 31.52391602 -123.63525391 31.11767578 C-100.7166244 17.93538827 -75.14177437 9.32989082 -49.3125 4 C-48.60182373 3.85256348 -47.89114746 3.70512695 -47.15893555 3.55322266 C-31.51641634 0.56786213 -15.88080394 -0.0623098 0 0 Z " fill="#5F98D1" transform="translate(255.6875,-0.3125)"/>
<path d="M0 0 C3.19526422 1.42298381 5.46326345 3.15017888 8.01165771 5.53562927 C8.7996727 6.27031433 9.58768768 7.00499939 10.39958191 7.76194763 C11.25481949 8.56938919 12.11005707 9.37683075 12.99121094 10.20874023 C13.89887711 11.0598941 14.80654327 11.91104797 15.74171448 12.78799438 C24.13850977 20.68918414 32.43895538 28.69084113 40.70560837 36.72791958 C46.25161981 42.11635472 51.82569654 47.46695218 57.48583984 52.7355957 C98.69727196 91.15098677 98.69727196 91.15098677 100.14185143 107.85899067 C100.31732484 114.24320135 99.3680097 120.31660204 97.83992004 126.5116272 C96.79399325 130.85559135 96.40031224 135.12960497 96.05081177 139.57475281 C95.64793005 144.09743415 94.82352904 148.53805917 94 153 C93.83902832 153.91007813 93.67805664 154.82015625 93.51220703 155.7578125 C82.67577857 215.55074725 48.61972256 273.05167861 0 310 C-0.54027832 310.41668945 -1.08055664 310.83337891 -1.63720703 311.26269531 C-11.6322116 318.9459873 -22.09209036 325.68842968 -33 332 C-33.67724121 332.39429199 -34.35448242 332.78858398 -35.05224609 333.19482422 C-60.77118399 347.98778703 -89.80771373 357.18484224 -119 362 C-119.6693457 362.11714355 -120.33869141 362.23428711 -121.02832031 362.35498047 C-131.64638053 364.14594652 -142.47865938 364.36248144 -153.2253418 364.57019043 C-154.85557407 364.60648068 -156.48557195 364.65586178 -158.11499023 364.71887207 C-160.43591049 364.80340103 -162.75194115 364.83378517 -165.07421875 364.8515625 C-165.7684343 364.88647797 -166.46264984 364.92139343 -167.17790222 364.95736694 C-170.03676475 364.93256223 -172.31366629 364.65498888 -174.4303875 362.63493824 C-174.91435053 362.02570357 -175.39831356 361.41646891 -175.89694214 360.78877258 C-179.12625173 356.93992794 -182.53152504 353.35528013 -186.08079529 349.80567932 C-186.65404083 349.23187979 -187.22728637 348.65808026 -187.81790298 348.06689286 C-189.69754899 346.1892113 -191.58008189 344.31445229 -193.46264648 342.43969727 C-194.82349083 341.08077463 -196.18410579 339.72162227 -197.54450989 338.36225891 C-200.46062191 335.44929439 -203.37827666 332.53788729 -206.29714775 329.62768745 C-210.90854354 325.02985459 -215.51608615 320.42817335 -220.12306213 315.82591248 C-229.89157772 306.06847144 -239.66433405 296.31528283 -249.4375 286.5625 C-260.013153 276.00886421 -270.58807101 265.45449803 -281.15814453 254.89527363 C-285.74295806 250.31545568 -290.33020167 245.73808969 -294.91929138 241.16255677 C-297.76263111 238.32664354 -300.603927 235.48868953 -303.44465446 232.65015984 C-304.76768944 231.32900631 -306.09159309 230.00872208 -307.41640091 228.68934631 C-309.21591681 226.89698098 -311.01238595 225.10161798 -312.80809021 223.30543518 C-313.60635425 222.51256358 -313.60635425 222.51256358 -314.42074484 221.70367438 C-318 218.11409337 -318 218.11409337 -318 217 C-213.06 216.67 -108.12 216.34 0 216 C-8.415 207.585 -8.415 207.585 -17 199 C-19.31 196.36 -21.62 193.72 -24 191 C-25.36583785 189.57472621 -26.74748704 188.16411129 -28.15625 186.78125 C-28.86910156 186.07613281 -29.58195312 185.37101563 -30.31640625 184.64453125 C-31.03699219 183.93683594 -31.75757813 183.22914063 -32.5 182.5 C-37.26857774 177.81672776 -41.84975966 173.08033648 -46.20898438 168.01367188 C-49.47191 164.34510446 -52.99848712 160.93887401 -56.5 157.5 C-60.62061727 153.45309681 -64.69531659 149.42196268 -68.4609375 145.0390625 C-72.44443811 140.40872703 -76.77224791 136.15556715 -81.125 131.875 C-85.99434242 127.08561394 -90.74460467 122.34915157 -95 117 C-99.38072117 117.44515411 -101.15117611 120.04887 -103.9375 123.25 C-104.91182456 124.34314463 -105.88848122 125.43421412 -106.8671875 126.5234375 C-107.37733398 127.09288086 -107.88748047 127.66232422 -108.41308594 128.24902344 C-123.03791238 144.38583194 -123.03791238 144.38583194 -133 149 C-134.15757812 149.55558594 -135.31515625 150.11117187 -136.5078125 150.68359375 C-144.00791355 154.02362355 -150.89828333 155.55643738 -159.125 155.625 C-160.3150061 155.64119385 -160.3150061 155.64119385 -161.52905273 155.65771484 C-168.35106084 155.49052658 -171.95665993 153.06060773 -176.7734375 148.203125 C-177.63195312 147.22859375 -178.49046875 146.2540625 -179.375 145.25 C-180.24898437 144.26515625 -181.12296875 143.2803125 -182.0234375 142.265625 C-182.67570313 141.51796875 -183.32796875 140.7703125 -184 140 C-183.01 139.67 -182.02 139.34 -181 139 C-180.154375 139.433125 -179.30875 139.86625 -178.4375 140.3125 C-168.08331029 145.39546586 -155.91771593 145.09944726 -145 142 C-130.76942651 136.80434635 -120.9465695 126.17004696 -110.89868164 115.30566406 C-105.79776491 109.80260037 -100.54728323 104.47420738 -95.18676758 99.22412109 C-92.19506271 96.27542328 -89.33453577 93.2783118 -86.59375 90.09375 C-82.11198557 84.90170594 -77.20673783 80.15831676 -72.31640625 75.35546875 C-68.92081439 71.99671876 -65.61582231 68.62147576 -62.5 65 C-58.05564748 59.83439256 -53.17492912 55.12707707 -48.31640625 50.35546875 C-44.2817751 46.36461298 -40.46028262 42.28347991 -36.75976562 37.98242188 C-33.03608091 33.78759393 -28.96344461 29.92583073 -24.9609375 26 C-21.02069708 22.10539943 -17.2982615 18.10747458 -13.68310547 13.91015625 C-11.10086192 10.97956827 -8.34594325 8.23804205 -5.5625 5.5 C-5.02173828 4.96375 -4.48097656 4.4275 -3.92382812 3.875 C-2.61823383 2.58095964 -1.30947004 1.29011826 0 0 Z " fill="#3A6DA1" transform="translate(415,148)"/>
<path d="M0 0 C104.61 0 209.22 0 317 0 C315.35148193 3.29703614 314.48470368 4.7545419 311.98828125 7.171875 C311.39466797 7.75453125 310.80105469 8.3371875 310.18945312 8.9375 C309.26036133 9.8346875 309.26036133 9.8346875 308.3125 10.75 C304.57975274 14.37449358 300.9394066 18.00812822 297.54296875 21.953125 C293.27695824 26.90272587 288.62284042 31.42740556 283.9609375 36 C280.69334698 39.22974198 277.52847667 42.48511625 274.53125 45.96875 C270.07439395 51.14314977 265.1855361 55.86250569 260.31640625 60.64453125 C256.92081439 64.00328124 253.61582231 67.37852424 250.5 71 C246.05564748 76.16560744 241.17492912 80.87292293 236.31640625 85.64453125 C232.9311829 88.99302523 229.63554742 92.35660669 226.53125 95.96875 C221.88053801 101.37420611 216.75310504 106.293088 211.671875 111.2890625 C207.45290572 115.46498108 203.3965734 119.70578624 199.53833008 124.21850586 C190.43732852 134.75810408 180.20492349 141.85159505 166.4375 144.75 C152.14434181 145.78950241 140.70507053 143.72252852 129 135 C128.21625 134.43152344 127.4325 133.86304688 126.625 133.27734375 C123.74525658 130.77899492 121.38793916 128.06341915 118.9140625 125.171875 C115.62256496 121.4370329 112.05025771 117.98674684 108.5 114.5 C103.73142226 109.81672776 99.15024034 105.08033648 94.79101562 100.01367188 C91.52809 96.34510446 88.00151288 92.93887401 84.5 89.5 C79.73142226 84.81672776 75.15024034 80.08033648 70.79101562 75.01367188 C67.52809 71.34510446 64.00151288 67.93887401 60.5 64.5 C55.73142226 59.81672776 51.15024034 55.08033648 46.79101562 50.01367188 C43.52809 46.34510446 40.00151288 42.93887401 36.5 39.5 C32.38111015 35.45479333 28.30843507 31.42619787 24.546875 27.04296875 C19.79958263 21.52301924 14.53341737 16.52208073 9.3203125 11.44726562 C8.54945312 10.68736328 7.77859375 9.92746094 6.984375 9.14453125 C6.29053711 8.46753174 5.59669922 7.79053223 4.88183594 7.09301758 C3 5 3 5 0 0 Z " fill="#FEFEFE" transform="translate(97,148)"/>
<path d="M0 0 C6.47206572 3.08193606 10.92619197 8.70568464 15.5625 14.0625 C26.40990093 26.54310512 39.95606579 36.71214945 56.99633789 38.17089844 C73.98079763 39.24204182 89.50105402 35.1602339 102.59057617 23.73974609 C105.2191043 21.20827665 107.77586528 18.62343971 110.3125 16 C111.17939453 15.1234375 112.04628906 14.246875 112.93945312 13.34375 C117.16431981 9.04442206 121.24057432 4.71284704 125 0 C128.23405894 0.57268436 129.74971509 1.40884898 131.92578125 3.8515625 C132.46775146 4.44831787 133.00972168 5.04507324 133.56811523 5.65991211 C134.43158569 6.63263062 134.43158569 6.63263062 135.3125 7.625 C140.95915957 13.84225673 146.76030288 19.84698992 152.76098633 25.72314453 C155.77094501 28.69108444 158.65213107 31.70543637 161.41015625 34.91015625 C165.22526929 39.33048762 169.33603226 43.41052184 173.5 47.5 C178.26857774 52.18327224 182.84975966 56.91966352 187.20898438 61.98632812 C190.47191 65.65489554 193.99848712 69.06112599 197.5 72.5 C202.33008319 77.24367741 206.98158936 82.0409435 211.39697266 87.17431641 C213.63340323 89.72138126 216.01127284 92.07035904 218.4375 94.4375 C219.97657223 95.93987304 221.50344685 97.45526807 223 99 C223 99.33 223 99.66 223 100 C118.06 100 13.12 100 -95 100 C-92.54538202 95.90897003 -90.67422526 93.44596011 -87.359375 90.19921875 C-86.45316406 89.30396484 -85.54695313 88.40871094 -84.61328125 87.48632812 C-83.65922908 86.55300203 -82.70479984 85.62006122 -81.75 84.6875 C-76.20934517 79.25058836 -70.75825162 73.83787156 -65.71191406 67.93676758 C-61.8121085 63.52473713 -57.51550491 59.47944936 -53.31640625 55.35546875 C-49.9311829 52.00697477 -46.63554742 48.64339331 -43.53125 45.03125 C-38.88053801 39.62579389 -33.75310504 34.706912 -28.671875 29.7109375 C-24.51426701 25.59575408 -20.553813 21.40466421 -16.74169922 16.96875 C-13.66859364 13.49502932 -10.36177141 10.25718061 -7.0625 7 C-6.37865234 6.32066406 -5.69480469 5.64132812 -4.99023438 4.94140625 C-3.32912841 3.29191641 -1.66571487 1.6448332 0 0 Z " fill="#FEFEFE" transform="translate(192,264)"/>
<path d="M0 0 C4.43087473 3.79789262 8.58606977 7.4582625 12.6875 11.5546875 C13.19369873 12.0599295 13.69989746 12.56517151 14.22143555 13.08572388 C15.28133819 14.14495233 16.34000457 15.20541921 17.39746094 16.26708984 C18.99303722 17.86801389 20.5938734 19.46353684 22.1953125 21.05859375 C23.23469563 22.09863801 24.27376833 23.13899261 25.3125 24.1796875 C26.23675781 25.10507324 27.16101563 26.03045898 28.11328125 26.98388672 C30.25902105 29.18031402 32.27897761 31.45796316 34.28125 33.78564453 C38.36736126 38.49467764 42.75826877 42.86576441 47.1875 47.25 C48.04883545 48.10754883 48.9101709 48.96509766 49.79760742 49.84863281 C52.5293112 52.56820889 55.26423275 55.284512 58 58 C61.60711851 61.58038026 65.21081802 65.16415181 68.8125 68.75 C70.03779419 69.96284668 70.03779419 69.96284668 71.2878418 71.20019531 C75.52005467 75.41443235 79.59218905 79.69765625 83.46864319 84.24255371 C85.98680301 87.13249458 88.7061908 89.81324164 91.4375 92.5 C91.97826172 93.03625 92.51902344 93.5725 93.07617188 94.125 C94.38176617 95.41904036 95.69052996 96.70988174 97 98 C92.76922902 102.99941486 88.4263374 107.85643426 83.9375 112.625 C83.26211182 113.34357178 82.58672363 114.06214355 81.89086914 114.80249023 C75.16329654 121.91116844 68.23960213 128.81988119 61.27124023 135.69189453 C57.64331825 139.28343682 54.0597354 142.85366324 50.75390625 146.74609375 C44.65320777 153.8601558 37.76421526 160.28738274 31.10644531 166.87304688 C22.00337301 175.84951377 22.00337301 175.84951377 13.43652344 185.33203125 C11.12319331 188.0180733 8.63507422 190.4968789 6.125 193 C5.39796875 193.73283203 5.39796875 193.73283203 4.65625 194.48046875 C1.12686012 198 1.12686012 198 0 198 C0 132.66 0 67.32 0 0 Z " fill="#FDFDFE" transform="translate(88,157)"/>
<path d="M0 0 C0 65.34 0 130.68 0 198 C-4.36560043 194.25805678 -8.46890138 190.66795479 -12.5 186.625 C-13.3765625 185.75101563 -14.253125 184.87703125 -15.15625 183.9765625 C-17.20737553 181.87530471 -19.12768391 179.69622108 -21.03125 177.4609375 C-26.35416282 171.32391506 -32.22546568 165.70678838 -38 160 C-50.81254839 147.33776642 -50.81254839 147.33776642 -56.1171875 141.10546875 C-60.66880003 136.01559498 -65.64328498 131.29726237 -70.5 126.5 C-83.52813431 113.63134736 -83.52813431 113.63134736 -88.57250977 107.65234375 C-90.90434076 104.95321049 -93.44789849 102.48985513 -96 100 C-90.71253721 87.56574683 -76.09362362 77.0147745 -66.54248047 67.57910156 C-60.35442235 61.46673274 -60.35442235 61.46673274 -54.51953125 55.01953125 C-49.20296441 48.79379386 -43.21959236 43.16559392 -37.39746094 37.41796875 C-32.00362245 32.08696468 -26.68404776 26.76109704 -21.75683594 20.98828125 C-18.0681274 16.81362279 -14.07171444 12.92861025 -10.125 9 C-9.25875 8.12988281 -8.3925 7.25976562 -7.5 6.36328125 C-6.26636719 5.13158203 -6.26636719 5.13158203 -5.0078125 3.875 C-4.26160645 3.12992188 -3.51540039 2.38484375 -2.74658203 1.6171875 C-1 0 -1 0 0 0 Z " fill="#FDFDFE" transform="translate(424,157)"/>
<path d="M0 0 C5.18010355 2.50961538 5.18010355 2.50961538 7 5 C6.63191006 8.85315316 4.69596704 10.64183203 1.9921875 13.265625 C1.16976562 14.07386719 0.34734375 14.88210938 -0.5 15.71484375 C-1.36625 16.55144531 -2.2325 17.38804687 -3.125 18.25 C-8.36236599 23.3512265 -13.47028694 28.44435281 -18.22607422 33.99902344 C-22.35312076 38.65430467 -26.89407286 42.9294072 -31.328125 47.2890625 C-35.4765127 51.39511971 -39.42299977 55.57810169 -43.2265625 60.00390625 C-47.15714065 64.42797108 -51.463371 68.49980444 -55.68359375 72.64453125 C-59.07140926 75.99558926 -62.36938211 79.36208736 -65.4765625 82.9765625 C-69.37837947 87.51267599 -73.60968683 91.68322671 -77.875 95.875 C-79.39550816 97.37008161 -80.91385411 98.86736644 -82.4296875 100.3671875 C-83.42331299 101.34341064 -83.42331299 101.34341064 -84.43701172 102.33935547 C-86.08544452 103.93142515 -86.08544452 103.93142515 -87 106 C-91.25219775 105.52753358 -93.37314725 103.22727623 -96 100 C-95.70713036 96.57948754 -94.28528209 94.93521702 -91.8671875 92.609375 C-90.90425781 91.66771484 -90.90425781 91.66771484 -89.921875 90.70703125 C-89.24640625 90.06121094 -88.5709375 89.41539062 -87.875 88.75 C-84.06996249 85.07279971 -80.30805543 81.42867033 -76.8828125 77.390625 C-70.72956281 70.23649311 -63.81032153 63.75822418 -57.10644531 57.12695312 C-48.10040718 48.24124325 -48.10040718 48.24124325 -39.62451172 38.85595703 C-36.28698059 35.04292553 -32.65318345 31.51000277 -29.0625 27.9375 C-28.30259766 27.17373047 -27.54269531 26.40996094 -26.75976562 25.62304688 C-22.59301076 21.46340859 -18.33388659 17.49109705 -13.87280273 13.65014648 C-10.95489772 11.07914922 -8.22615763 8.33386177 -5.5 5.5625 C-4.96375 5.02173828 -4.4275 4.48097656 -3.875 3.92382812 C-2.58095964 2.61823383 -1.29011826 1.30947004 0 0 Z " fill="#3D6FA2" transform="translate(185,257)"/>
</svg>
